<svg width="50" height="50" viewBox="0 0 50 50" fill="none" xmlns="http://www.w3.org/2000/svg">
<path d="M50 37.8642V11.4092C50 8.96943 48.0306 7 45.5908 7H4.40917C1.96943 7 0 8.96943 0 11.4092V37.8642C0 40.3039 1.96943 42.2734 4.40917 42.2734H45.5908C48.0306 42.2734 50 40.3039 50 37.8642ZM46.1493 11.0858C47.1193 12.0558 46.5902 13.0553 46.0611 13.555L34.127 24.4897L45.5908 36.4239C45.9436 36.8354 46.1787 37.4821 45.7672 37.923C45.3851 38.3933 44.5032 38.3639 44.1211 38.07L31.2757 27.1058L24.9853 32.8377L18.7243 27.1058L5.87889 38.07C5.49677 38.3639 4.61493 38.3933 4.2328 37.923C3.82128 37.4821 4.05644 36.8354 4.40917 36.4239L15.873 24.4897L3.93886 13.555C3.40976 13.0553 2.88066 12.0558 3.85068 11.0858C4.82069 10.1158 5.82011 10.5861 6.64315 11.2916L24.9853 26.1064L43.3568 11.2916C44.1799 10.5861 45.1793 10.1158 46.1493 11.0858Z" fill="black"/>
</svg>
