<svg width="50" height="50" viewBox="0 0 50 50" fill="none" xmlns="http://www.w3.org/2000/svg">
<path fill-rule="evenodd" clip-rule="evenodd" d="M15.5521 2.22087C17.9958 2.10837 18.775 2.08337 25 2.08337C31.225 2.08337 32.0041 2.11046 34.4458 2.22087C36.8875 2.33129 38.5541 2.72087 40.0125 3.28546C41.5396 3.86254 42.925 4.76462 44.0708 5.93129C45.2375 7.07504 46.1375 8.45837 46.7125 9.98754C47.2791 11.4459 47.6666 13.1125 47.7791 15.55C47.8916 17.998 47.9166 18.7771 47.9166 25C47.9166 31.225 47.8896 32.0042 47.7791 34.448C47.6687 36.8855 47.2791 38.5521 46.7125 40.0105C46.1375 41.5398 45.236 42.9255 44.0708 44.0709C42.925 45.2375 41.5396 46.1375 40.0125 46.7125C38.5541 47.2792 36.8875 47.6667 34.45 47.7792C32.0041 47.8917 31.225 47.9167 25 47.9167C18.775 47.9167 17.9958 47.8896 15.5521 47.7792C13.1146 47.6688 11.4479 47.2792 9.98956 46.7125C8.46023 46.1375 7.07461 45.236 5.92915 44.0709C4.76327 42.9264 3.86105 41.5415 3.2854 40.0125C2.72081 38.5542 2.33331 36.8875 2.22081 34.45C2.10831 32.0021 2.08331 31.223 2.08331 25C2.08331 18.775 2.1104 17.9959 2.22081 15.5542C2.33123 13.1125 2.72081 11.4459 3.2854 9.98754C3.8619 8.45854 4.76481 7.07361 5.93123 5.92921C7.07506 4.76358 8.4593 3.86138 9.98748 3.28546C11.4458 2.72087 13.1125 2.33337 15.55 2.22087H15.5521ZM34.2604 6.34587C31.8437 6.23546 31.1187 6.21254 25 6.21254C18.8812 6.21254 18.1562 6.23546 15.7396 6.34587C13.5041 6.44796 12.2916 6.82087 11.4833 7.13546C10.4146 7.55212 9.64998 8.04587 8.8479 8.84796C8.08757 9.58765 7.50244 10.4881 7.1354 11.4834C6.82081 12.2917 6.4479 13.5042 6.34581 15.7396C6.2354 18.1563 6.21248 18.8813 6.21248 25C6.21248 31.1188 6.2354 31.8438 6.34581 34.2605C6.4479 36.4959 6.82081 37.7084 7.1354 38.5167C7.50206 39.5105 8.08748 40.4125 8.8479 41.1521C9.58748 41.9125 10.4896 42.498 11.4833 42.8646C12.2916 43.1792 13.5041 43.5521 15.7396 43.6542C18.1562 43.7646 18.8791 43.7875 25 43.7875C31.1208 43.7875 31.8437 43.7646 34.2604 43.6542C36.4958 43.5521 37.7083 43.1792 38.5166 42.8646C39.5854 42.448 40.35 41.9542 41.1521 41.1521C41.9125 40.4125 42.4979 39.5105 42.8646 38.5167C43.1791 37.7084 43.5521 36.4959 43.6541 34.2605C43.7646 31.8438 43.7875 31.1188 43.7875 25C43.7875 18.8813 43.7646 18.1563 43.6541 15.7396C43.5521 13.5042 43.1791 12.2917 42.8646 11.4834C42.4479 10.4146 41.9541 9.65004 41.1521 8.84796C40.4123 8.08769 39.5119 7.50256 38.5166 7.13546C37.7083 6.82087 36.4958 6.44796 34.2604 6.34587ZM22.0729 32.0646C23.7076 32.7451 25.5279 32.8369 27.2227 32.3245C28.9176 31.812 30.382 30.7269 31.3658 29.2547C32.3496 27.7825 32.7918 26.0144 32.6167 24.2523C32.4417 22.4903 31.6604 20.8437 30.4062 19.5938C29.6067 18.7948 28.64 18.183 27.5757 17.8024C26.5113 17.4219 25.3759 17.282 24.251 17.393C23.1261 17.5039 22.0399 17.8629 21.0704 18.4441C20.1009 19.0252 19.2724 19.8141 18.6444 20.7539C18.0164 21.6937 17.6045 22.7611 17.4386 23.8791C17.2726 24.9972 17.3565 26.1381 17.6844 27.2199C18.0123 28.3016 18.576 29.2971 19.3348 30.1349C20.0936 30.9726 21.0288 31.6317 22.0729 32.0646ZM16.6708 16.6709C17.7646 15.5771 19.0631 14.7094 20.4923 14.1175C21.9214 13.5255 23.4531 13.2208 25 13.2208C26.5468 13.2208 28.0786 13.5255 29.5077 14.1175C30.9368 14.7094 32.2353 15.5771 33.3291 16.6709C34.4229 17.7647 35.2906 19.0632 35.8826 20.4923C36.4745 21.9214 36.7792 23.4532 36.7792 25C36.7792 26.5469 36.4745 28.0786 35.8826 29.5078C35.2906 30.9369 34.4229 32.2354 33.3291 33.3292C31.1201 35.5382 28.124 36.7793 25 36.7793C21.8759 36.7793 18.8798 35.5382 16.6708 33.3292C14.4618 31.1202 13.2208 28.1241 13.2208 25C13.2208 21.876 14.4618 18.8799 16.6708 16.6709ZM39.3916 14.975C39.6627 14.7194 39.8797 14.4119 40.0298 14.0708C40.1799 13.7298 40.26 13.3621 40.2654 12.9895C40.2709 12.6169 40.2015 12.247 40.0614 11.9017C39.9213 11.5564 39.7134 11.2428 39.4499 10.9793C39.1864 10.7158 38.8727 10.5079 38.5275 10.3678C38.1822 10.2277 37.8123 10.1583 37.4397 10.1638C37.0671 10.1692 36.6994 10.2493 36.3584 10.3994C36.0173 10.5495 35.7098 10.7665 35.4541 11.0375C34.9569 11.5647 34.6846 12.2649 34.6952 12.9895C34.7058 13.7141 34.9983 14.406 35.5107 14.9185C36.0231 15.4309 36.7151 15.7234 37.4397 15.734C38.1643 15.7446 38.8645 15.4723 39.3916 14.975Z" fill="black"/>
</svg>
