<svg width="50" height="50" viewBox="0 0 50 50" fill="none" xmlns="http://www.w3.org/2000/svg">
<path d="M21.7271 41.5084L29.1479 38.3584C29.2833 39.2706 29.112 40.202 28.661 41.0065C28.2099 41.8109 27.5046 42.4429 26.6557 42.8032C25.8068 43.1636 24.8622 43.232 23.9702 42.9976C23.0782 42.7633 22.2893 42.2395 21.7271 41.5084ZM33.0437 4.36253C37.3896 6.73753 40.6521 9.78545 42.7979 13.5021C44.9437 17.2188 45.9542 21.5688 45.8375 26.5188C45.8278 26.9332 45.6539 27.3268 45.3541 27.613C45.0542 27.8991 44.6529 28.0545 44.2385 28.0448C43.8241 28.0352 43.4305 27.8613 43.1444 27.5614C42.8582 27.2615 42.7028 26.8603 42.7125 26.4459C42.8167 22.0459 41.9375 18.2625 40.0917 15.0646C38.2458 11.8667 35.4062 9.21461 31.5458 7.10628C31.182 6.90737 30.9121 6.57206 30.7954 6.17414C30.6788 5.77621 30.725 5.34825 30.924 4.9844C31.1229 4.62056 31.4582 4.35064 31.8561 4.23401C32.254 4.11739 32.682 4.16362 33.0458 4.36253H33.0437ZM13.9812 13.5729C16.8478 12.2929 20.0989 12.1738 23.0515 13.2406C26.0041 14.3074 28.4282 16.4771 29.8146 19.2938L30.0187 19.7313L32.7021 25.7542L36.2396 28.8167C36.4333 28.9834 36.6 29.1792 36.7937 29.4938L36.9167 29.7313C37.0554 30.0441 37.1312 30.3812 37.1396 30.7233C37.1479 31.0654 37.0888 31.4058 36.9656 31.7251C36.8423 32.0443 36.6574 32.3362 36.4213 32.5839C36.1852 32.8316 35.9025 33.0303 35.5896 33.1688L14.0729 42.6875C13.6766 42.8626 13.2428 42.936 12.8109 42.901C12.379 42.8661 11.9627 42.724 11.5996 42.4875C11.2365 42.251 10.9382 41.9277 10.7316 41.5468C10.5251 41.166 10.4168 40.7396 10.4167 40.3063L10.4146 35.425L7.82708 29.6084C7.17604 28.1518 6.81876 26.5811 6.77569 24.9863C6.73262 23.3915 7.00462 21.8038 7.5761 20.3142C8.14758 18.8247 9.00731 17.4625 10.1061 16.3057C11.2048 15.1489 12.521 14.2203 13.9792 13.5729H13.9812ZM32.55 11.8646C34.5646 12.9625 36.1792 14.5604 37.375 16.6334C38.5708 18.7063 39.1479 20.9042 39.0917 23.1959C39.0867 23.4011 39.0414 23.6033 38.9584 23.791C38.8753 23.9786 38.7561 24.1481 38.6075 24.2897C38.4589 24.4313 38.2839 24.5423 38.0925 24.6163C37.901 24.6902 37.6969 24.7258 37.4917 24.7209C37.2865 24.7159 37.0843 24.6706 36.8966 24.5876C36.7089 24.5045 36.5394 24.3853 36.3978 24.2367C36.2562 24.0881 36.1452 23.9131 36.0713 23.7217C35.9973 23.5302 35.9617 23.3261 35.9667 23.1209C36.0083 21.4084 35.5812 19.7771 34.6687 18.1959C33.7562 16.6125 32.5562 15.425 31.0542 14.6084C30.6903 14.41 30.4202 14.0752 30.3032 13.6777C30.1861 13.2802 30.2318 12.8524 30.4302 12.4886C30.6286 12.1247 30.9633 11.8546 31.3609 11.7376C31.7584 11.6206 32.1862 11.6663 32.55 11.8646Z" fill="#FF0D0B"/>
</svg>
